<?xml version="1.0" encoding="UTF-8"?>
<svg version="1.1" xmlns="http://www.w3.org/2000/svg" width="1000" height="331">
<path d="M0 0 C12.00108499 8.51334385 23.81523724 18.33840788 33.54052734 29.41333008 C33.54052734 30.07333008 33.54052734 30.73333008 33.54052734 31.41333008 C31.81658184 32.66792916 30.0328474 33.84065101 28.22802734 34.97583008 C0.91913058 52.75388978 -20.62215228 78.14449466 -36.45947266 106.41333008 C-36.89259766 107.1785498 -37.32572266 107.94376953 -37.77197266 108.73217773 C-62.10600943 152.10310478 -74.86766012 205.2388885 -61.27197266 254.10083008 C-55.67126813 272.72501638 -45.11762188 288.66971816 -29.45947266 300.41333008 C-34.51984491 299.85715913 -38.60552035 298.15313071 -43.08447266 295.85083008 C-43.78813965 295.492229 -44.49180664 295.13362793 -45.21679688 294.76416016 C-65.19007743 284.38722173 -84.17815242 268.83521843 -98.45947266 251.41333008 C-99.20197266 250.55868164 -99.94447266 249.7040332 -100.70947266 248.82348633 C-137.71171616 205.75056224 -158.69845857 149.53717266 -158.89697266 92.91333008 C-158.90323669 92.07755432 -158.90950073 91.24177856 -158.91595459 90.38067627 C-159.07339739 57.20103282 -150.05862062 23.71908744 -126.45947266 -0.58666992 C-90.35454535 -34.62550697 -38.05953242 -26.05597936 0 0 Z " fill="#FFFFFF" transform="translate(158.45947265625,29.586669921875)"/>
<path d="M0 0 C19.73648325 17.01519746 27.82332601 43.27731191 29.9128418 68.45556641 C33.69575582 126.45201983 8.94525083 182.83220526 -28.45849609 226.00561523 C-38.00819482 236.85840093 -48.61037894 245.91619723 -60.3125 254.375 C-60.92053467 254.81706787 -61.52856934 255.25913574 -62.1550293 255.71459961 C-66.50811878 258.8125 -66.50811878 258.8125 -68.75 258.8125 C-67.26736128 255.37370966 -65.29616114 253.16387089 -62.6875 250.5 C-50.46889784 237.08503391 -43.38447069 220.09254207 -38.9375 202.6875 C-38.64504395 201.54438354 -38.64504395 201.54438354 -38.34667969 200.37817383 C-35.30866326 187.63002465 -34.36585543 174.87556534 -34.4375 161.8125 C-34.43965515 161.09739258 -34.4418103 160.38228516 -34.44403076 159.64550781 C-34.7069891 104.85289458 -56.24542297 41.31707703 -95.75 1.8125 C-95.75 0.8225 -95.75 -0.1675 -95.75 -1.1875 C-63.87740624 -16.91385764 -30.07561447 -23.02599055 0 0 Z " fill="#FFFFFF" transform="translate(293.75,61.1875)"/>
<path d="M0 0 C75.12903226 0 75.12903226 0 91 12 C91.825 12.556875 92.65 13.11375 93.5 13.6875 C102.14565908 21.68473465 105.45497948 32.12015346 106.16015625 43.609375 C106.56728751 56.9916026 103.98230541 69.67400205 94.8125 79.75 C89.38081485 84.84961706 82.48233602 88.40928926 75 89 C75 89.66 75 90.32 75 91 C76.258125 91.20625 77.51625 91.4125 78.8125 91.625 C89.09779987 93.9662378 97.45757256 99.81209282 104 108 C112.02822364 120.83730627 113.00292188 136.06359135 110.3125 150.75390625 C109.40464575 153.65525712 108.34858978 156.27761315 107 159 C106.57589844 159.8765625 106.15179688 160.753125 105.71484375 161.65625 C99.34585824 173.43621205 88.51525909 180.57365169 75.93505859 184.67285156 C50.86429897 191.99168077 26.98016334 189 0 189 C0 126.63 0 64.26 0 0 Z M20 17 C20 38.45 20 59.9 20 82 C27.7034375 82.12375 27.7034375 82.12375 35.5625 82.25 C37.14877197 82.28641602 38.73504395 82.32283203 40.36938477 82.36035156 C53.98228157 82.46476173 67.6747384 80.82347318 78 71 C84.87595553 62.88953053 86.49802228 55.00438155 86.30859375 44.5078125 C85.63374885 36.8367907 82.84515154 30.71270054 77.1015625 25.53125 C60.69692356 13.57842758 39.04750836 17 20 17 Z M20 99 C20 123.09 20 147.18 20 172 C53.33486109 173.43990967 53.33486109 173.43990967 82.54296875 159.7890625 C89.80993389 152.03233832 92.31573966 144.13091022 92.14453125 133.609375 C91.64536661 124.5974296 88.65705144 116.66704512 82.1796875 110.17578125 C65.21373254 96.54119802 40.08571083 99 20 99 Z " fill="#FFFFFF" transform="translate(405,59)"/>
<path d="M0 0 C5.94 0 11.88 0 18 0 C18.33 38.94 18.66 77.88 19 118 C24.20966303 113.44154485 29.34064912 108.86657869 34.375 104.125 C39.35974542 99.45064643 44.38104909 94.8272352 49.4765625 90.2734375 C53.06895162 87.03695071 56.61218005 83.74815626 60.15991211 80.46289062 C64.42864481 76.51490037 68.73851762 72.61664383 73.07421875 68.7421875 C74.41488757 67.52933092 75.72163895 66.27836105 77 65 C79.43017578 64.77294922 79.43017578 64.77294922 82.4453125 64.8046875 C83.52167969 64.81113281 84.59804688 64.81757812 85.70703125 64.82421875 C86.83496094 64.84097656 87.96289062 64.85773438 89.125 64.875 C90.26066406 64.88402344 91.39632812 64.89304687 92.56640625 64.90234375 C95.37781299 64.92596902 98.18880298 64.95890987 101 65 C97.65784095 69.01626756 94.3209212 72.80579386 90.375 76.25 C86.54694897 79.62972073 82.75605209 83.0409213 79 86.5 C72.90086509 92.103823 66.74437764 97.64213876 60.578125 103.171875 C56.99642043 106.38856509 53.41897828 109.60858939 49.87890625 112.87109375 C49.3482959 113.35980957 48.81768555 113.84852539 48.27099609 114.35205078 C46.76647415 115.7396626 45.26403799 117.12953494 43.76171875 118.51953125 C41.24250979 120.78218711 38.66743712 122.91560924 36 125 C37.65658551 129.0904491 40.54730515 132.00572293 43.53515625 135.16015625 C44.13594498 135.79889175 44.7367337 136.43762726 45.35572815 137.09571838 C55.80759258 148.10907718 66.66950177 158.73498882 77.4375 169.4375 C81.38488288 173.36106717 85.33048068 177.28639927 89.27189827 181.21595955 C90.82676308 182.76444496 92.38464971 184.30984219 93.94273376 185.85508728 C104.84502816 196.69982625 104.84502816 196.69982625 109 202 C109 202.33 109 202.66 109 203 C86.53739122 205.59953039 86.53739122 205.59953039 79.24609375 199.94140625 C76.02179042 196.89418136 73.22218892 193.56071118 70.54394531 190.02929688 C65.15268876 182.94325568 58.83281294 176.7327685 52.5 170.5 C50.86208036 168.88795587 49.22662734 167.27340139 47.59375 165.65625 C46.87896484 164.95306641 46.16417969 164.24988281 45.42773438 163.52539062 C42.16348513 160.1298361 39.10162756 156.54471722 36 153 C30.39 147.39 24.78 141.78 19 136 C18.67 158.11 18.34 180.22 18 203 C12.06 203 6.12 203 0 203 C0 136.01 0 69.02 0 0 Z " fill="#FFFFFF" transform="translate(682,45)"/>
<path d="M0 0 C1.44353707 1.06879801 2.86032018 2.17455516 4.25 3.3125 C5.37341797 4.21548828 5.37341797 4.21548828 6.51953125 5.13671875 C18.61357145 15.95336459 23.43941036 32.0199549 25.4375 47.625 C25.56390869 48.60134399 25.56390869 48.60134399 25.69287109 49.59741211 C26.47295007 56.58343392 26.25 63.14976417 26.25 70.3125 C-5.1 70.3125 -36.45 70.3125 -68.75 70.3125 C-68.255 71.3025 -68.255 71.3025 -67.75 72.3125 C-67.48000524 74.58104289 -67.23404054 76.85246638 -67 79.125 C-65.28265857 93.30332983 -59.82449041 104.60742165 -48.81640625 113.77734375 C-38.52677457 121.42162589 -26.57687952 122.53527119 -14.140625 120.8125 C-6.31751601 119.38421454 0.90691739 117.22163179 8.32421875 114.3984375 C11.25 113.3125 11.25 113.3125 15.25 112.3125 C15.25 118.2525 15.25 124.1925 15.25 130.3125 C10.64736259 132.28505889 6.97535104 133.79386451 2.25 134.9375 C1.280625 135.17726562 0.31125 135.41703125 -0.6875 135.6640625 C-8.64599537 137.34915208 -16.30980717 137.52822402 -24.4375 137.5625 C-26.24250977 137.5934375 -26.24250977 137.5934375 -28.08398438 137.625 C-44.75298683 137.69704323 -59.06251551 132.8959086 -71.20703125 121.20703125 C-87.79341175 102.32760276 -89.18977001 76.25227588 -87.75 52.3125 C-85.80542225 34.65236839 -78.90111122 18.47727788 -65.75 6.3125 C-65.26273438 5.83167969 -64.77546875 5.35085937 -64.2734375 4.85546875 C-47.97737977 -10.39795022 -18.62706709 -11.4114626 0 0 Z M-58.92578125 24.81640625 C-65.65514988 34.02425754 -67.63399508 44.15245083 -68.75 55.3125 C-44 55.3125 -19.25 55.3125 6.25 55.3125 C6.25 41.57111587 3.26911913 29.01989466 -5.125 17.875 C-11.9489418 11.21353301 -19.12328391 8.39976809 -28.5625 7.9375 C-41.3361547 8.25144543 -50.91173449 15.4798056 -58.92578125 24.81640625 Z " fill="#FFFFFF" transform="translate(880.75,113.6875)"/>
<path d="M0 0 C1.02955811 -0.0100708 2.05911621 -0.0201416 3.11987305 -0.03051758 C15.3354442 0.10815045 26.77125954 3.29314703 36.0625 11.4375 C44.8008788 22.60122475 47.17910129 34.41795896 47.25195312 48.3034668 C47.26439308 49.59281883 47.26439308 49.59281883 47.27708435 50.90821838 C47.29440532 52.7649476 47.30959337 54.6216977 47.32286072 56.47846031 C47.34403936 59.42700483 47.37105243 62.37544639 47.39953613 65.32392883 C47.45903421 71.59091202 47.5112301 77.85794484 47.5625 84.125 C47.62199444 91.37510129 47.68456194 98.62515232 47.75437927 105.87516212 C47.78068261 108.76194733 47.80166314 111.64873842 47.8223877 114.53556824 C47.90024212 123.55561779 48.14271547 132.45424009 49.0625 141.4375 C43.1225 141.4375 37.1825 141.4375 31.0625 141.4375 C30.7325 135.1675 30.4025 128.8975 30.0625 122.4375 C29.216875 123.63375 28.37125 124.83 27.5 126.0625 C20.00876865 135.93493482 9.39074861 142.36774485 -2.9375 144.4375 C-17.79481687 145.7429973 -33.91654176 145.4422041 -45.9375 135.4375 C-53.86024833 128.08378885 -58.31172154 119.62075674 -59.140625 108.78125 C-59.35317853 95.88633589 -56.87568645 84.41075389 -48.26171875 74.51171875 C-33.95558424 60.69573018 -12.72876237 57.82073389 6.25 56.875 C7.07282471 56.8325415 7.89564941 56.79008301 8.7434082 56.74633789 C15.52205496 56.41820042 22.27572151 56.32783931 29.0625 56.4375 C28.6853022 38.07871691 28.6853022 38.07871691 20.0625 22.4375 C17.69715411 20.8415998 17.69715411 20.8415998 15.125 19.6875 C14.29097656 19.28015625 13.45695313 18.8728125 12.59765625 18.453125 C-0.85196891 13.06498549 -18.74676052 16.69831732 -31.75 22 C-34.72243303 23.31607035 -37.22426394 24.62867596 -39.9375 26.4375 C-40.9275 26.4375 -41.9175 26.4375 -42.9375 26.4375 C-42.9375 20.8275 -42.9375 15.2175 -42.9375 9.4375 C-28.86339891 2.94176104 -15.52191311 0.09779576 0 0 Z M-33.53515625 87.16796875 C-39.10025174 94.51778874 -39.93207844 102.43339096 -38.9375 111.4375 C-36.97583635 118.39854917 -33.47059799 122.69845117 -27.25 126.3203125 C-17.37849944 131.08931446 -6.19407216 130.38977489 4.171875 127.47265625 C14.49908581 123.77439832 20.55085295 117.85683339 25.3125 108.125 C29.9808983 96.60961753 29.27755927 84.63613955 29.0625 72.4375 C-4.8272116 71.37701447 -4.8272116 71.37701447 -33.53515625 87.16796875 Z " fill="#FFFFFF" transform="translate(597.9375,106.5625)"/>
<path d="M0 0 C1.19012695 -0.00193359 1.19012695 -0.00193359 2.40429688 -0.00390625 C3.64083008 0.00189453 3.64083008 0.00189453 4.90234375 0.0078125 C5.73056641 0.00394531 6.55878906 0.00007813 7.41210938 -0.00390625 C8.60030273 -0.00197266 8.60030273 -0.00197266 9.8125 0 C10.89930054 0.00169189 10.89930054 0.00169189 12.00805664 0.00341797 C13.83984375 0.1328125 13.83984375 0.1328125 15.83984375 1.1328125 C15.83984375 7.4028125 15.83984375 13.6728125 15.83984375 20.1328125 C13.55046875 19.9265625 11.26109375 19.7203125 8.90234375 19.5078125 C-0.31467192 18.8459101 -7.03158541 19.35939674 -14.31640625 25.38671875 C-25.3003891 35.78892285 -29.030204 50.82771341 -29.43584251 65.54568481 C-29.51254069 69.74520209 -29.54676137 73.94444622 -29.57421875 78.14453125 C-29.59296089 79.96727851 -29.6125365 81.79001737 -29.63290405 83.61274719 C-29.68390977 88.37518326 -29.72370298 93.13764736 -29.76104736 97.90020752 C-29.80128652 102.77403517 -29.85228732 107.64774941 -29.90234375 112.52148438 C-29.99872867 122.05852142 -30.08225498 131.59560655 -30.16015625 141.1328125 C-36.10015625 141.1328125 -42.04015625 141.1328125 -48.16015625 141.1328125 C-48.49015625 95.5928125 -48.82015625 50.0528125 -49.16015625 3.1328125 C-43.22015625 3.1328125 -37.28015625 3.1328125 -31.16015625 3.1328125 C-30.83015625 10.0628125 -30.50015625 16.9928125 -30.16015625 24.1328125 C-29.17015625 22.4828125 -28.18015625 20.8328125 -27.16015625 19.1328125 C-20.93527751 9.40095983 -12.42056872 0.01930587 0 0 Z " fill="#FFFFFF" transform="translate(984.16015625,106.8671875)"/>
<path d="M0 0 C3 2.0625 3 2.0625 5 5 C5 9.64026734 4.14966379 12.57645241 1 16 C1.66 16.99 2.32 17.98 3 19 C3.66 17.35 4.32 15.7 5 14 C6.65 14 8.3 14 10 14 C9.85892253 15.45880109 9.71197585 16.91703551 9.5625 18.375 C9.48128906 19.18710937 9.40007813 19.99921875 9.31640625 20.8359375 C9 23 9 23 8 25 C9.98 27.97 9.98 27.97 12 31 C11.22914063 30.98839844 10.45828125 30.97679687 9.6640625 30.96484375 C8.66117188 30.95582031 7.65828125 30.94679688 6.625 30.9375 C5.12839844 30.92009766 5.12839844 30.92009766 3.6015625 30.90234375 C1.01567547 30.81993398 1.01567547 30.81993398 -1 32 C-5.99220285 32.37677003 -8.98020143 32.07396361 -13 29 C-14.16983345 26.6603331 -14.1661241 25.16608473 -14.1875 22.5625 C-14.20167969 21.78003906 -14.21585938 20.99757813 -14.23046875 20.19140625 C-14 18 -14 18 -12 15 C-11.34 15 -10.68 15 -10 15 C-10.33 14.484375 -10.66 13.96875 -11 13.4375 C-12.38885542 10.05216491 -12.45310904 7.62487235 -12 4 C-8.47224727 -0.16916232 -5.31877021 -0.85480236 0 0 Z M-4 4 C-4.99 4.495 -4.99 4.495 -6 5 C-5.67 6.98 -5.34 8.96 -5 11 C-3.68 10.34 -2.36 9.68 -1 9 C-1 7.68 -1 6.36 -1 5 C-1.99 4.67 -2.98 4.34 -4 4 Z M-6 18 C-6.66 18.66 -7.32 19.32 -8 20 C-7.67801034 23.09926819 -7.67801034 23.09926819 -7 26 C-3.95086772 27.01111093 -3.95086772 27.01111093 -1 26 C-1.54226981 22.20411134 -3.20127563 20.52788007 -6 18 Z " fill="#FFFFFF" transform="translate(562,284)"/>
<path d="M0 0 C2.31 0 4.62 0 7 0 C8.14785376 2.43656685 9.29335402 4.87419281 10.4375 7.3125 C10.76298828 8.00279297 11.08847656 8.69308594 11.42382812 9.40429688 C12.75487485 12.24477803 14.00707934 15.02123803 15 18 C15.495 9.09 15.495 9.09 16 0 C17.98 0 19.96 0 22 0 C22 10.23 22 20.46 22 31 C19.36 31 16.72 31 14 31 C11.69 25.72 9.38 20.44 7 15 C6.67 20.28 6.34 25.56 6 31 C4.02 31 2.04 31 0 31 C0 20.77 0 10.54 0 0 Z " fill="#FFFFFF" transform="translate(817,284)"/>
<path d="M0 0 C11.94736842 0 11.94736842 0 17 2 C19.3377499 5.50662485 19.3298962 6.87629745 19 11 C18.608125 11.845625 18.21625 12.69125 17.8125 13.5625 C17.544375 14.366875 17.27625 15.17125 17 16 C17.9873454 17.67419438 18.98812105 19.34051852 20 21 C19.89184463 26.29961311 18.97428342 27.02571658 15 31 C10.05 31 5.1 31 0 31 C0 20.77 0 10.54 0 0 Z M6 6 C6 8.31 6 10.62 6 13 C7.98 12.67 9.96 12.34 12 12 C12.042721 10.33388095 12.04063832 8.66617115 12 7 C10.93354885 5.70366379 10.93354885 5.70366379 8.4375 5.9375 C7.633125 5.958125 6.82875 5.97875 6 6 Z M6 18 C6 20.64 6 23.28 6 26 C8.41645782 26.16687448 8.41645782 26.16687448 11 26 C11.66 25.34 12.32 24.68 13 24 C12.71016731 20.69316534 12.71016731 20.69316534 11 18 C9.33382885 17.95936168 7.66611905 17.957279 6 18 Z " fill="#FFFFFF" transform="translate(666,284)"/>
<path d="M0 0 C14.62941176 0 14.62941176 0 18.57421875 3.328125 C22.66607854 7.97103755 23.3722423 11.75473379 23.28125 17.83984375 C22.78757124 21.63157088 21.33654717 24.98056512 19 28 C14 31 14 31 0 31 C0 20.77 0 10.54 0 0 Z M6 6 C6 12.6 6 19.2 6 26 C12.79202063 25.84480117 12.79202063 25.84480117 15 22.5 C16.27632814 18.03285152 16.24771283 14.47309294 15 10 C13.4348581 7.34845969 13.4348581 7.34845969 11 6 C9.35 6 7.7 6 6 6 Z " fill="#FFFFFF" transform="translate(593,284)"/>
<path d="M0 0 C2.31 0 4.62 0 7 0 C7.33 8.58 7.66 17.16 8 26 C9.98 25.34 11.96 24.68 14 24 C14.33 16.08 14.66 8.16 15 0 C17.31 0 19.62 0 22 0 C22.08782542 3.52067351 22.14066643 7.04106144 22.1875 10.5625 C22.21263672 11.55314453 22.23777344 12.54378906 22.26367188 13.56445312 C22.3230671 19.5237736 21.91872224 23.76036609 19 29 C16.62173894 31.23836335 15.07882906 31.95561168 11.81640625 32.08984375 C7.96771647 31.84337593 5.62584099 31.46938074 2.5 29.125 C-0.0118702 25.56651722 -0.12004901 22.68926356 -0.09765625 18.45703125 C-0.09443359 17.38388672 -0.09121094 16.31074219 -0.08789062 15.20507812 C-0.07951172 14.08552734 -0.07113281 12.96597656 -0.0625 11.8125 C-0.05798828 10.68134766 -0.05347656 9.55019531 -0.04882812 8.38476562 C-0.03703498 5.58979073 -0.0205765 2.7949218 0 0 Z " fill="#FFFFFF" transform="translate(931,284)"/>
<path d="M0 0 C12.69230769 0 12.69230769 0 18 3 C19.56516118 6.13032236 19.540337 9.59073084 19 13 C18.46375 13.64195312 17.9275 14.28390625 17.375 14.9453125 C16.92125 15.62335938 16.4675 16.30140625 16 17 C16.47321493 19.52099319 16.47321493 19.52099319 17.75 22 C19.12162348 24.99928334 20.3116339 27.7676722 21 31 C18.69 31 16.38 31 14 31 C13.3291288 29.3767313 12.66342971 27.75132422 12 26.125 C11.62875 25.22007812 11.2575 24.31515625 10.875 23.3828125 C10 21 10 21 10 19 C8.68 19 7.36 19 6 19 C6 22.96 6 26.92 6 31 C4.02 31 2.04 31 0 31 C0 20.77 0 10.54 0 0 Z M6 6 C6 8.64 6 11.28 6 14 C8.99152582 13.22520264 8.99152582 13.22520264 12 12 C12.33 11.01 12.66 10.02 13 9 C12.34 8.01 11.68 7.02 11 6 C8.41619823 5.74969023 8.41619823 5.74969023 6 6 Z " fill="#FFFFFF" transform="translate(487,284)"/>
<path d="M0 0 C2.31 0 4.62 0 7 0 C7 4.29 7 8.58 7 13 C9.64 13 12.28 13 15 13 C15 8.71 15 4.42 15 0 C16.98 0 18.96 0 21 0 C21 10.23 21 20.46 21 31 C19.02 31 17.04 31 15 31 C15 26.71 15 22.42 15 18 C12.36 18 9.72 18 7 18 C7 22.29 7 26.58 7 31 C4.69 31 2.38 31 0 31 C0 20.77 0 10.54 0 0 Z " fill="#FFFFFF" transform="translate(405,284)"/>
<path d="M0 0 C2.31 0 4.62 0 7 0 C9.38674989 6.24226894 11.57294086 12.53573711 13.6875 18.875 C14.00783203 19.82375 14.32816406 20.7725 14.65820312 21.75 C14.96048828 22.65492188 15.26277344 23.55984375 15.57421875 24.4921875 C15.84838623 25.31058105 16.12255371 26.12897461 16.4050293 26.97216797 C17 29 17 29 17 31 C14.69 31 12.38 31 10 31 C9.34 28.69 8.68 26.38 8 24 C5.03 24.33 2.06 24.66 -1 25 C-1.66 26.98 -2.32 28.96 -3 31 C-5.31 31 -7.62 31 -10 31 C-7.45115129 20.41620917 -3.6653736 10.23507071 0 0 Z M3 8 C1.515 13.445 1.515 13.445 0 19 C2.31 19 4.62 19 7 19 C6.01 15.37 5.02 11.74 4 8 C3.67 8 3.34 8 3 8 Z " fill="#FFFFFF" transform="translate(465,284)"/>
<path d="M0 0 C2.31 0 4.62 0 7 0 C9.71108956 5.96439703 11.72319438 12.0669103 13.6875 18.3125 C14.00783203 19.31345703 14.32816406 20.31441406 14.65820312 21.34570312 C17 28.74058835 17 28.74058835 17 31 C14.69 31 12.38 31 10 31 C9.34 29.02 8.68 27.04 8 25 C5.03 25 2.06 25 -1 25 C-1.66 26.98 -2.32 28.96 -3 31 C-5.31 31 -7.62 31 -10 31 C-7.92028538 23.90563736 -5.66940941 16.88176199 -3.3125 9.875 C-2.83200195 8.44027344 -2.83200195 8.44027344 -2.34179688 6.9765625 C-1.56258967 4.65057084 -0.78197326 2.32506289 0 0 Z M3 8 C1.515 13.445 1.515 13.445 0 19 C2.31 19 4.62 19 7 19 C6.01 15.37 5.02 11.74 4 8 C3.67 8 3.34 8 3 8 Z " fill="#FFFFFF" transform="translate(644,284)"/>
<path d="M0 0 C5.61 0 11.22 0 17 0 C17 1.98 17 3.96 17 6 C13.7 6 10.4 6 7 6 C7 8.31 7 10.62 7 13 C10.3 13 13.6 13 17 13 C17 14.65 17 16.3 17 18 C13.7 18 10.4 18 7 18 C7 20.64 7 23.28 7 26 C10.3 26 13.6 26 17 26 C17 27.65 17 29.3 17 31 C11.39 31 5.78 31 0 31 C0 20.77 0 10.54 0 0 Z " fill="#FFFFFF" transform="translate(983,284)"/>
<path d="M0 0 C5.61 0 11.22 0 17 0 C17 1.98 17 3.96 17 6 C13.7 6 10.4 6 7 6 C7 8.31 7 10.62 7 13 C9.97 13 12.94 13 16 13 C16 14.65 16 16.3 16 18 C13.03 18 10.06 18 7 18 C7 20.64 7 23.28 7 26 C10.3 26 13.6 26 17 26 C17 27.65 17 29.3 17 31 C11.39 31 5.78 31 0 31 C0 20.77 0 10.54 0 0 Z " fill="#FFFFFF" transform="translate(434,284)"/>
<path d="M0 0 C5.61 0 11.22 0 17 0 C17 1.98 17 3.96 17 6 C13.37 6 9.74 6 6 6 C6 8.31 6 10.62 6 13 C9.3 13 12.6 13 16 13 C16 14.65 16 16.3 16 18 C12.7 18 9.4 18 6 18 C6 20.64 6 23.28 6 26 C9.63 26 13.26 26 17 26 C17 27.65 17 29.3 17 31 C11.39 31 5.78 31 0 31 C0 20.77 0 10.54 0 0 Z " fill="#FFFFFF" transform="translate(740,284)"/>
<path d="M0 0 C0.99 0.33 1.98 0.66 3 1 C3 2.65 3 4.3 3 6 C0.33059475 7.33470263 -1.13332753 6.57333449 -4 6 C-4.99 6.495 -4.99 6.495 -6 7 C-5.63641494 9.67007782 -5.35223126 10.72519889 -3.1875 12.4140625 C-2.465625 12.81367188 -1.74375 13.21328125 -1 13.625 C2.90818859 15.81637717 2.90818859 15.81637717 4 18 C4.51571681 22.37936569 4.83341277 25.85046515 2.1875 29.5 C-0.88315305 31.60559066 -3.36035408 32.13878654 -7 32.125 C-8.0209375 32.12886719 -8.0209375 32.12886719 -9.0625 32.1328125 C-11 32 -11 32 -14 31 C-13.67 29.02 -13.34 27.04 -13 25 C-10.03 25 -7.06 25 -4 25 C-3.67 23.35 -3.34 21.7 -3 20 C-3.721875 19.7525 -4.44375 19.505 -5.1875 19.25 C-8.86397353 17.61601177 -12.16101709 15.67796581 -14 12 C-14.5801105 5.73480663 -14.5801105 5.73480663 -12.125 2.625 C-8.22270693 -0.35910647 -4.78298254 -0.32202259 0 0 Z " fill="#FFFFFF" transform="translate(860,284)"/>
<path d="M0 0 C5.28 0 10.56 0 16 0 C16 1.98 16 3.96 16 6 C12.7 6 9.4 6 6 6 C6 8.31 6 10.62 6 13 C9.3 13 12.6 13 16 13 C16 14.65 16 16.3 16 18 C12.7 18 9.4 18 6 18 C6 20.64 6 23.28 6 26 C9.63 26 13.26 26 17 26 C17 27.65 17 29.3 17 31 C11.39 31 5.78 31 0 31 C0 20.77 0 10.54 0 0 Z " fill="#FFFFFF" transform="translate(693,284)"/>
<path d="M0 0 C0.66 0.33 1.32 0.66 2 1 C2 2.98 2 4.96 2 7 C0.88625 6.814375 -0.2275 6.62875 -1.375 6.4375 C-4.82568861 5.68319343 -4.82568861 5.68319343 -7 7 C-7 8.32 -7 9.64 -7 11 C-6.278125 11.2475 -5.55625 11.495 -4.8125 11.75 C-1.13602647 13.38398823 2.16101709 15.32203419 4 19 C3.984375 21.05859375 3.984375 21.05859375 3.75 23.4375 C3.68296875 24.21996094 3.6159375 25.00242187 3.546875 25.80859375 C2.8956961 28.41796062 2.10493912 29.36115454 0 31 C-2.67643957 31.89214652 -4.25384378 32.13540211 -7 32.125 C-8.0209375 32.12886719 -8.0209375 32.12886719 -9.0625 32.1328125 C-11 32 -11 32 -14 31 C-14 29.02 -14 27.04 -14 25 C-10.7 25.33 -7.4 25.66 -4 26 C-4 24.35 -4 22.7 -4 21 C-5.91958356 19.16505396 -5.91958356 19.16505396 -8.4375 17.8125 C-12.9243604 15.1512792 -12.9243604 15.1512792 -14 13 C-14.203125 10.94140625 -14.203125 10.94140625 -14.25 8.5625 C-14.28867187 7.38880859 -14.28867187 7.38880859 -14.328125 6.19140625 C-13.91962728 3.46322502 -13.16727539 2.6558389 -11 1 C-7.10835652 -0.29721449 -4.10570774 -0.13033993 0 0 Z " fill="#FFFFFF" transform="translate(777,284)"/>
<path d="M0 0 C6.6 0 13.2 0 20 0 C20 1.98 20 3.96 20 6 C18.02 6 16.04 6 14 6 C14 14.25 14 22.5 14 31 C11.69 31 9.38 31 7 31 C7 22.75 7 14.5 7 6 C4.69 6 2.38 6 0 6 C0 4.02 0 2.04 0 0 Z " fill="#FFFFFF" transform="translate(868,284)"/>
<path d="M0 0 C6.27 0 12.54 0 19 0 C19 1.98 19 3.96 19 6 C17.02 6 15.04 6 13 6 C13 14.25 13 22.5 13 31 C10.69 31 8.38 31 6 31 C6 22.75 6 14.5 6 6 C4.02 6 2.04 6 0 6 C0 4.02 0 2.04 0 0 Z " fill="#FFFFFF" transform="translate(715,284)"/>
<path d="M0 0 C6.6 0 13.2 0 20 0 C20 1.98 20 3.96 20 6 C17.69 6 15.38 6 13 6 C13 14.25 13 22.5 13 31 C11.02 31 9.04 31 7 31 C7 22.75 7 14.5 7 6 C4.69 6 2.38 6 0 6 C0 4.02 0 2.04 0 0 Z " fill="#FFFFFF" transform="translate(958,284)"/>
<path d="M0 0 C6.6 0 13.2 0 20 0 C20 1.98 20 3.96 20 6 C17.69 6 15.38 6 13 6 C13 14.25 13 22.5 13 31 C11.02 31 9.04 31 7 31 C7 22.75 7 14.5 7 6 C4.69 6 2.38 6 0 6 C0 4.02 0 2.04 0 0 Z " fill="#FFFFFF" transform="translate(906,284)"/>
<path d="M0 0 C6.6 0 13.2 0 20 0 C20 1.98 20 3.96 20 6 C17.69 6 15.38 6 13 6 C13 14.25 13 22.5 13 31 C11.02 31 9.04 31 7 31 C7 22.75 7 14.5 7 6 C4.69 6 2.38 6 0 6 C0 4.02 0 2.04 0 0 Z " fill="#FFFFFF" transform="translate(511,284)"/>
<path d="M0 0 C2.31 0 4.62 0 7 0 C7 10.23 7 20.46 7 31 C4.69 31 2.38 31 0 31 C0 20.77 0 10.54 0 0 Z " fill="#FFFFFF" transform="translate(801,284)"/>
<path d="M0 0 C1.98 0 3.96 0 6 0 C6 10.23 6 20.46 6 31 C4.02 31 2.04 31 0 31 C0 20.77 0 10.54 0 0 Z " fill="#FFFFFF" transform="translate(894,284)"/>
<path d="M0 0 C1.98 0 3.96 0 6 0 C6 10.23 6 20.46 6 31 C4.02 31 2.04 31 0 31 C0 20.77 0 10.54 0 0 Z " fill="#FFFFFF" transform="translate(623,284)"/>
</svg>
