<?xml version="1.0" encoding="UTF-8"?>
<svg version="1.1" xmlns="http://www.w3.org/2000/svg" width="975" height="445">
<path d="M0 0 C0.86342931 -0.00644889 1.72685862 -0.01289778 2.61645246 -0.0195421 C3.56040836 -0.01644489 4.50436427 -0.01334769 5.4769249 -0.01015663 C6.4833355 -0.01468774 7.48974611 -0.01921886 8.52665401 -0.02388728 C11.90902935 -0.03657759 15.29124464 -0.0349079 18.6736412 -0.03325844 C21.09471978 -0.03924085 23.51579644 -0.04604572 25.93687057 -0.05361366 C31.83723715 -0.0694719 37.73756602 -0.07572341 43.63794956 -0.07683842 C48.43517919 -0.07778887 53.23239565 -0.08189905 58.02962112 -0.08823967 C71.63383943 -0.10585442 85.23802619 -0.11507837 98.84225598 -0.11357872 C99.57568049 -0.11349881 100.30910499 -0.1134189 101.06475449 -0.11333656 C102.16623652 -0.11321392 102.16623652 -0.11321392 103.28997073 -0.1130888 C115.1860083 -0.11227621 127.08191916 -0.13140647 138.97792009 -0.1596133 C151.19578846 -0.18835438 163.41359507 -0.20215287 175.6314981 -0.20042574 C182.48961724 -0.19976218 189.34760362 -0.20523933 196.20569229 -0.22678185 C202.65713195 -0.24691715 209.10836376 -0.24630733 215.55982018 -0.23174858 C217.92692664 -0.22965587 220.29405053 -0.23438879 222.66112709 -0.2464695 C225.89457139 -0.26190203 229.12704644 -0.25262601 232.36046982 -0.23720741 C233.76301935 -0.2526381 233.76301935 -0.2526381 235.19390321 -0.26838052 C241.16215589 -0.20556322 245.68577246 0.87388464 250.67266464 4.25726891 C252.73125839 6.51117516 252.73125839 6.51117516 254.11016464 8.81976891 C254.58325058 9.58418297 255.05633652 10.34859703 255.54375839 11.13617516 C258.04677127 15.83906787 258.20332665 20.05796817 257.67266464 25.25726891 C255.50373837 32.06108617 251.53617966 37.58825816 247.23516464 43.19476891 C245.9751895 44.86990322 244.71609509 46.5457003 243.45782089 48.22211266 C242.82376328 49.06242027 242.18970566 49.90272789 241.53643417 50.76849937 C238.69644634 54.5608541 235.93403906 58.40750057 233.17266464 62.25726891 C228.13386696 69.26033064 223.03051774 76.21341914 217.90313339 83.15180016 C213.95851061 88.49584566 210.05297408 93.86637671 206.17266464 99.25726891 C201.71245511 105.45381305 197.21006829 111.61702914 192.67266464 117.75726891 C186.49110175 126.12487973 180.38544471 134.54485194 174.30791855 142.98822594 C172.61357229 145.33926418 170.91516593 147.68732116 169.21563339 150.03461266 C163.64168762 157.73471083 158.07657275 165.43634007 152.67266464 173.25726891 C155.33669312 174.63446782 157.99526403 175.80661761 160.80547714 176.85101891 C178.56502425 183.59476446 194.22137895 191.8625301 208.67266464 204.25726891 C210.0783873 205.45222984 210.0783873 205.45222984 211.51250839 206.67133141 C216.68072707 211.19449422 221.39728796 215.8822583 225.67266464 221.25726891 C226.07066269 221.75404137 226.46866074 222.25081383 226.87871933 222.76264 C239.64667333 238.87638476 248.2330002 256.44702896 253.67266464 276.25726891 C253.96077011 277.30285973 253.96077011 277.30285973 254.25469589 278.36957359 C263.22877056 312.98141503 254.40156697 350.07662189 236.89141464 380.33539391 C232.97337392 386.71111471 228.49670639 392.54434422 223.67266464 398.25726891 C223.01137558 399.04230797 222.35008652 399.82734703 221.66875839 400.63617516 C200.30572257 425.34371757 167.9219996 442.13553492 135.34600449 445.07855797 C95.54482326 447.73923967 59.50948628 438.16019908 28.67266464 412.25726891 C27.96110214 411.66945641 27.24953964 411.08164391 26.51641464 410.47601891 C21.74298137 406.43695998 17.62625529 402.09574945 13.67266464 397.25726891 C12.52991074 395.88828453 12.52991074 395.88828453 11.36407089 394.49164391 C-7.48744347 371.08165103 -18.31604325 341.84834896 -18.63983536 311.75726891 C-18.66883926 310.85879234 -18.69784317 309.96031578 -18.72772598 309.03461266 C-18.78549591 302.92877546 -17.92519479 298.29110618 -14.32733536 293.25726891 C-12.07342911 291.19867516 -12.07342911 291.19867516 -9.76483536 289.81976891 C-9.0004213 289.34668297 -8.23600723 288.87359703 -7.44842911 288.38617516 C-2.06974607 285.5234875 4.05919438 285.20307547 9.89532089 286.90570641 C15.84580808 289.58858502 20.19387171 293.82584446 22.78203964 299.83148766 C23.97884268 304.43498005 24.22731992 308.96096605 24.54766464 313.69476891 C26.82045641 341.37363773 39.05033448 363.8312501 59.95782089 382.09711266 C80.26967747 398.25892084 106.20360567 404.62536583 131.83575058 402.03900719 C151.69364956 399.26007346 170.55912233 390.51082652 184.67266464 376.25726891 C185.55953964 375.41164391 186.44641464 374.56601891 187.36016464 373.69476891 C188.50485214 372.48820641 188.50485214 372.48820641 189.67266464 371.25726891 C190.19086777 370.73390953 190.70907089 370.21055016 191.24297714 369.67133141 C208.33782082 351.50326884 214.79445748 326.09621119 214.05938339 301.76117516 C212.72414931 277.3352369 199.62454487 255.43307022 182.41875839 238.69867516 C163.99188448 222.31631926 140.07187382 212.97541994 115.54766464 211.94476891 C109.07043145 211.51533908 103.86514268 210.28930678 98.67266464 206.25726891 C96.59786298 203.7502169 95.06504339 201.19097855 93.67266464 198.25726891 C93.34266464 197.59726891 93.01266464 196.93726891 92.67266464 196.25726891 C91.57566325 186.70363649 92.9170098 180.83433351 98.67266464 173.25726891 C99.13431015 172.64367516 99.59595566 172.03008141 100.07159042 171.39789391 C102.81251307 167.76068348 105.58475049 164.1490949 108.37578964 160.55023766 C111.22481095 156.86302839 113.98073752 153.12278228 116.67266464 149.31976891 C117.06840683 148.76087975 117.46414902 148.20199059 117.87188339 147.62616539 C118.6970362 146.45978027 119.52189922 145.2931901 120.34649277 144.12640953 C130.19845341 130.24080373 140.32408978 116.55294135 150.44317245 102.86176109 C157.26577728 93.6280756 164.05359581 84.37242785 170.75860214 75.0529232 C175.45329165 68.53674581 180.21647566 62.07217018 185.00469589 55.62445641 C185.55641464 54.87937828 186.10813339 54.13430016 186.67657089 53.36664391 C187.15940536 52.71663414 187.64223984 52.06662437 188.13970566 51.39691734 C190.05194696 48.72788043 191.85590132 45.99194224 193.67266464 43.25726891 C192.68629045 43.25488055 191.69991625 43.2524922 190.68365192 43.25003147 C166.67128066 43.19120932 142.65900951 43.11530961 118.64674854 43.02155399 C107.03454687 42.9766087 95.42237578 42.93719105 83.81011581 42.91083336 C73.68762644 42.8878431 63.56523396 42.85443344 53.44282144 42.80856735 C48.08421581 42.78464913 42.72570604 42.76591112 37.36704826 42.759655 C32.31995759 42.75359788 27.27311217 42.7335751 22.22611237 42.70299339 C20.37708172 42.69422327 18.52801902 42.69048846 16.67896843 42.69226074 C-5.63548656 42.70689154 -5.63548656 42.70689154 -13.88592911 34.83930016 C-18.50782036 29.76649268 -18.86392195 24.85891569 -18.67499161 18.22992516 C-17.99172598 12.38762017 -15.73659727 8.24317083 -11.32733536 4.38226891 C-7.44173577 1.6299692 -4.80197467 0.00908733 0 0 Z " fill="#3183C8" transform="translate(717.327335357666,-0.25726890563964844)"/>
<path d="M0 0 C0.81082031 0.03222656 1.62164062 0.06445312 2.45703125 0.09765625 C8.2337361 1.87446818 12.03395367 6.21163786 14.9073019 11.39272118 C15.80347726 13.15175587 16.68236207 14.91966947 17.54698181 16.69442749 C18.03890552 17.6714395 18.53082922 18.64845151 19.0376597 19.65506995 C20.67573234 22.91807892 22.29072578 26.1919643 23.90600586 29.46630859 C25.07806223 31.81267873 26.25152962 34.15834448 27.42630005 36.50335693 C29.94999728 41.54656618 32.46195425 46.59547939 34.96592522 51.64850998 C38.58620706 58.95422068 42.22422855 66.25098159 45.86657435 73.54571219 C51.77621557 85.38248318 57.67154323 97.22632248 63.55786133 109.07470703 C69.27429881 120.58106714 74.99748011 132.08403126 80.72973633 143.58251953 C81.08334974 144.29184814 81.43696315 145.00117674 81.80129211 145.73200016 C83.57539186 149.2906403 85.3496241 152.84921437 87.12392223 156.40775561 C101.83233774 185.90745668 116.5175181 215.41866687 131.1875 244.9375 C131.18896656 243.7370574 131.19043312 242.5366148 131.19194412 241.29979515 C131.2276455 212.8042154 131.28388577 184.30872522 131.36542095 155.81324073 C131.37543842 152.30599554 131.38528255 148.79874988 131.39501953 145.29150391 C131.39793159 144.24415892 131.39793159 144.24415892 131.40090248 143.17565544 C131.43192425 131.86975881 131.44890362 120.56388248 131.46069422 109.2579513 C131.47310488 97.65715538 131.50090178 86.05647206 131.54211307 74.45574248 C131.56477294 67.93970067 131.58040796 61.423811 131.57938385 54.90772629 C131.57863992 48.77637081 131.59648341 42.64535221 131.62866783 36.51408386 C131.63719631 34.26226461 131.63889688 32.0104077 131.63330269 29.75857925 C131.62668585 26.68618091 131.64452874 23.61486169 131.66851807 20.54257202 C131.66075765 19.64956717 131.65299723 18.75656232 131.64500165 17.83649671 C131.737807 11.1315327 133.74531801 7.59516864 138.3125 2.625 C142.50962153 0.16147215 146.34996841 -0.37174859 151.1875 -0.0625 C156.54345331 1.49393088 160.15806315 4.21157851 163.1875 8.9375 C164.19144938 11.94934813 164.31567174 13.94941766 164.32172108 17.09724045 C164.32617892 18.17178254 164.33063676 19.24632463 164.33522969 20.3534286 C164.33504533 21.53832731 164.33486097 22.72322603 164.33467102 23.94403076 C164.33834771 25.1993892 164.3420244 26.45474764 164.3458125 27.74814725 C164.35583567 31.23954124 164.3595498 34.73091803 164.36220181 38.22232437 C164.36610389 41.9852293 164.37568225 45.74812061 164.38441467 49.51101685 C164.40418114 58.60145817 164.41424523 67.69190061 164.42314246 76.78235805 C164.4275248 81.06211283 164.43289173 85.34186638 164.43813133 89.62162018 C164.4551433 103.84636046 164.46963804 118.07109996 164.47688007 132.29584885 C164.47879 135.98759716 164.48071033 139.67934546 164.48266602 143.37109375 C164.48314976 144.28867042 164.4836335 145.20624709 164.4841319 146.15162912 C164.49243434 161.01975879 164.517775 175.88780806 164.55024669 190.75590262 C164.58330498 206.01685049 164.60132769 221.27775748 164.60452431 236.53874135 C164.60669048 245.108792 164.61545481 253.67872537 164.64098549 262.24874115 C164.66267564 269.54647504 164.67075123 276.84406318 164.66101871 284.14182565 C164.65646916 287.86526759 164.65839791 291.58840871 164.67778015 295.31180954 C164.69861486 299.349097 164.68844231 303.38571522 164.67524719 307.42303467 C164.68621644 308.59901049 164.69718568 309.77498632 164.70848733 310.98659778 C164.65668088 317.53703605 164.13176503 321.62899184 160.1875 326.9375 C156.52847526 330.32879123 153.96248802 331.80096246 148.9375 332.1875 C143.62303617 331.83320241 139.87653351 330.36002852 135.79412556 326.92176533 C132.42037824 323.05924003 130.36065878 318.95893753 128.10649109 314.37675476 C127.62035979 313.40876428 127.13422848 312.4407738 126.63336593 311.44345027 C125.00864991 308.20224664 123.39832343 304.95410751 121.7878418 301.70581055 C120.62541671 299.3795499 119.46211047 297.05372939 118.29798889 294.72831726 C115.7940194 289.72299664 113.29738425 284.71407415 110.80573082 279.70261192 C107.20323715 272.45694353 103.58967602 265.21684036 99.97341297 257.97803626 C94.10619534 246.23266509 88.24791936 234.48285787 82.39526367 222.73022461 C76.71083038 211.31544433 71.02218862 199.90277773 65.32788086 188.49291992 C64.976729 187.78930258 64.62557714 187.08568524 64.26378431 186.36074617 C62.50208596 182.83082414 60.74030485 179.30094343 58.9784826 175.77108324 C44.36865367 146.4996142 29.77333583 117.22093226 15.1875 87.9375 C15.18511165 89.12763514 15.18272329 90.31777027 15.18026257 91.54397011 C15.12290314 119.79516457 15.0501729 148.04629087 14.95851372 176.29739473 C14.94724555 179.77459743 14.9361071 183.25180053 14.92504883 186.72900391 C14.92284514 187.42125267 14.92064146 188.11350144 14.918371 188.82672743 C14.8829983 200.03561923 14.85813402 211.24451096 14.83715298 222.45343788 C14.81539069 233.95478023 14.78211363 245.45604102 14.73879844 256.95732343 C14.71483416 263.41744973 14.69612635 269.8774958 14.68988609 276.33766556 C14.68384981 282.41644382 14.66390245 288.4950167 14.63322449 294.57371902 C14.62442093 296.80618871 14.62072645 299.03868522 14.62249184 301.27117157 C14.62414019 304.31713815 14.60748223 307.36247535 14.58622742 310.40835571 C14.59107499 311.29357867 14.59592257 312.17880162 14.60091704 313.09084952 C14.54291588 318.12085034 13.96420346 321.57419316 11.1875 325.9375 C7.4326413 329.59087604 3.59093435 331.87611541 -1.76171875 331.97265625 C-7.61935174 331.51520301 -11.69789006 329.34378028 -15.625 324.875 C-17.71446992 321.46586487 -17.93870268 318.67854879 -17.94392776 314.77496624 C-17.94776891 313.69980745 -17.95161005 312.62464866 -17.9555676 311.5169093 C-17.95470112 310.33132847 -17.95383463 309.14574764 -17.95294189 307.92424011 C-17.95591302 306.66817611 -17.95888414 305.4121121 -17.9619453 304.11798555 C-17.97002305 300.62465846 -17.9718053 297.13135191 -17.97254276 293.63801658 C-17.97439196 289.87308759 -17.98193861 286.10816928 -17.98867798 282.34324646 C-18.00226717 274.10774817 -18.00828688 265.87225475 -18.01268864 257.63674712 C-18.01544998 252.49597746 -18.01968712 247.35520969 -18.02419281 242.2144413 C-18.03638607 227.98540839 -18.04668538 213.756377 -18.0500679 199.52733898 C-18.05028747 198.61642945 -18.05050703 197.70551992 -18.05073325 196.76700707 C-18.05095153 195.85390015 -18.05116981 194.94079322 -18.0513947 194.00001639 C-18.05183817 192.14966913 -18.05228473 190.29932187 -18.05273438 188.44897461 C-18.0529558 187.53113563 -18.05317723 186.61329664 -18.05340537 185.66764436 C-18.05735414 170.79238847 -18.0748103 155.91718155 -18.0980939 141.04194459 C-18.1217975 125.77535115 -18.13426929 110.5087823 -18.13543582 95.24217016 C-18.13635312 86.66826258 -18.14211929 78.09441881 -18.16025543 69.52052879 C-18.17564303 62.22022006 -18.18078482 54.91999484 -18.17251733 47.61967298 C-18.16860609 43.89438069 -18.16956336 40.16925665 -18.18357468 36.44398499 C-18.19862176 32.40643823 -18.19046121 28.36927191 -18.17999268 24.33171082 C-18.18804908 23.15282215 -18.19610548 21.97393348 -18.20440602 20.75932091 C-18.1648337 14.25596382 -17.86442475 9.36379419 -13.34765625 4.29296875 C-8.79535296 0.68252131 -5.74338155 -0.35274312 0 0 Z " fill="#FFFFFF" transform="translate(478.8125,5.0625)"/>
<path d="M0 0 C22.94281176 18.25798586 38.39791312 43.16269298 41.88671875 72.515625 C43.28713973 89.41792827 43.28713973 89.41792827 39.16796875 94.91015625 C35.19629218 98.87098124 31.64182266 101.02463377 25.98046875 101.28515625 C20.81621588 101.2177598 16.87705306 99.51854144 13.16796875 95.91015625 C9.64803484 90.57158981 9.40825052 85.04359884 8.79296875 78.84765625 C7.74335408 69.7704463 6.23067465 62.16361895 2.16796875 53.91015625 C1.53955078 52.52376953 1.53955078 52.52376953 0.8984375 51.109375 C-7.65340443 33.68530513 -23.57477186 22.32632183 -41.328125 15.58203125 C-59.69859962 9.86766674 -78.92874154 11.8342964 -96.14453125 20.16015625 C-114.8874618 30.10150793 -126.54668802 45.59770125 -132.88671875 65.5625 C-134.31540033 70.62192195 -134.95934355 75.10264311 -134.97920227 80.37081909 C-134.98635757 81.6770372 -134.99351288 82.98325531 -135.00088501 84.32905579 C-135.00372503 85.76998877 -135.00643678 87.21092202 -135.0090332 88.65185547 C-135.01530252 90.17503513 -135.02194974 91.69821327 -135.02894592 93.22138977 C-135.04994446 98.21919702 -135.06034887 103.21700441 -135.0703125 108.21484375 C-135.07436254 109.94090923 -135.07847954 111.66697455 -135.08266258 113.3930397 C-135.10171018 121.50941131 -135.11593844 129.62577389 -135.12427455 137.74216354 C-135.13402592 147.08027443 -135.1602921 156.41814696 -135.20077544 165.75617397 C-135.23105742 172.99212008 -135.24575507 180.22799836 -135.24905556 187.46400654 C-135.25139357 191.77653606 -135.26018857 196.08881086 -135.28551674 200.40127182 C-135.30901303 204.46763095 -135.31294547 208.53357156 -135.30275536 212.59998131 C-135.30226496 214.08047704 -135.30843603 215.56099491 -135.3223114 217.0414257 C-135.51137156 238.43626009 -128.50134985 256.71018556 -113.59375 272.2421875 C-98.57627084 286.66978204 -80.67561122 292.72391603 -60.14648438 292.4296875 C-52.15466107 292.13072818 -45.27417467 290.99720281 -37.83203125 287.91015625 C-37.19217285 287.64702637 -36.55231445 287.38389648 -35.89306641 287.11279297 C-25.49471796 282.71817883 -17.62121194 277.03053045 -9.83203125 268.91015625 C-9.23003906 268.30429687 -8.62804687 267.6984375 -8.0078125 267.07421875 C8.22289767 249.60810019 9.42026258 227.14287978 9.79296875 204.66015625 C9.83123137 202.73956723 9.87028763 200.81899385 9.91015625 198.8984375 C10.00524174 194.23580691 10.08959465 189.57309645 10.16796875 184.91015625 C9.25421478 184.9190387 8.34046082 184.92792114 7.39901733 184.93707275 C-1.22272241 185.01730364 -9.84433632 185.07816388 -18.46636391 185.11740494 C-22.89879947 185.13825764 -27.33092592 185.16653258 -31.76318359 185.21191406 C-36.04258629 185.25545502 -40.32169213 185.27931079 -44.60129929 185.28966522 C-46.23196458 185.29704184 -47.86261409 185.31144685 -49.49315262 185.33307648 C-51.78175902 185.36222134 -54.06914729 185.36610781 -56.35791016 185.36425781 C-57.65918854 185.37314026 -58.96046692 185.38202271 -60.30117798 185.39117432 C-65.59485114 184.67000234 -68.62675778 182.24572956 -72.14453125 178.34765625 C-75.06824661 174.12451183 -75.4955156 169.92314914 -74.83203125 164.91015625 C-73.04464536 160.09198559 -70.09053725 156.74916025 -65.83203125 153.91015625 C-61.90085602 152.59976451 -58.14804067 152.75441723 -54.04956055 152.74902344 C-53.15167816 152.74405853 -52.25379578 152.73909363 -51.32870483 152.73397827 C-48.35454546 152.71935825 -45.38043943 152.71255477 -42.40625 152.70703125 C-40.33982847 152.70127951 -38.27340697 152.69552178 -36.20698547 152.6897583 C-31.87179312 152.67924866 -27.53661932 152.6734058 -23.20141602 152.66992188 C-17.64965852 152.66443836 -12.09814643 152.64041311 -6.54646587 152.61194992 C-2.27677192 152.59331482 1.99286304 152.58811746 6.26259422 152.586586 C8.30909758 152.58356074 10.35559993 152.57553648 12.40206337 152.56240082 C15.26733627 152.54532289 18.13201113 152.54722495 20.99731445 152.55371094 C21.84064835 152.54449615 22.68398224 152.53528137 23.5528717 152.52578735 C29.1874055 152.56568871 33.4901063 153.46764038 37.8125 157.41015625 C41.34545512 161.94746317 42.29178655 164.83806112 42.30841064 170.50752258 C42.31412079 171.67254303 42.31983093 172.83756348 42.32571411 174.03788757 C42.3273909 175.95719841 42.3273909 175.95719841 42.32910156 177.9152832 C42.33373053 179.27543268 42.3387553 180.63558087 42.34414673 181.99572754 C42.35726548 185.69211537 42.3637147 189.38848504 42.36815739 193.08489251 C42.37108907 195.39474942 42.37519407 197.70460138 42.37966156 200.0144558 C42.39333535 207.24288291 42.40300248 214.47129869 42.40686345 221.69973785 C42.41134352 230.04122387 42.42888943 238.38254597 42.45786405 246.72398216 C42.47948799 253.17334335 42.48956812 259.62265846 42.49090457 266.07205552 C42.49195213 269.92318059 42.49784929 273.77415155 42.51572418 277.62523842 C42.53221719 281.24910402 42.53435455 284.87269987 42.52558517 288.49658966 C42.52444913 290.45635948 42.53815717 292.41612039 42.55233765 294.37583923 C42.52029458 301.12765446 42.43456655 306.32880814 37.66796875 311.5546875 C32.22890778 315.78978966 27.91320313 316.69579087 21.16796875 315.91015625 C16.97039605 314.55187736 14.16373249 312.37350305 11.79296875 308.66015625 C9.8449236 304.8223408 9.46708704 301.17259184 9.16796875 296.91015625 C8.64332031 297.44382812 8.11867187 297.9775 7.578125 298.52734375 C-11.63622878 317.00637284 -38.34831559 326.2450147 -64.83203125 325.91015625 C-94.52263576 324.65765237 -120.81109766 312.87123898 -141.578125 291.47265625 C-159.91137153 270.62931184 -168.14329952 246.28526719 -168.12255859 218.78466797 C-168.12855503 217.18503001 -168.13536311 215.58539493 -168.14291382 213.98576355 C-168.16047017 209.66927974 -168.16526486 205.35287539 -168.16654539 201.03635931 C-168.16797375 198.33037475 -168.17225628 195.62440995 -168.17753983 192.91843033 C-168.19600768 183.45179223 -168.20421475 173.9852102 -168.20263672 164.51855469 C-168.20143705 155.73727294 -168.2225134 146.95623765 -168.25412405 138.17501819 C-168.28040367 130.60090874 -168.29099911 123.02687919 -168.2897259 115.45272458 C-168.28921958 110.94462018 -168.29471781 106.43673499 -168.316082 101.92867661 C-168.33566206 97.68164782 -168.33545623 93.43504288 -168.32104874 89.18799782 C-168.31898358 87.64384264 -168.32352157 86.09965951 -168.33576965 84.55555153 C-168.52083435 59.57345596 -159.99873994 36.10599563 -143.83203125 16.91015625 C-143.18878906 16.12125 -142.54554688 15.33234375 -141.8828125 14.51953125 C-127.73724493 -2.11000845 -108.88137869 -12.81160859 -87.83203125 -18.08984375 C-87.10483887 -18.27385742 -86.37764648 -18.45787109 -85.62841797 -18.64746094 C-55.91563304 -25.44691937 -24.3031434 -17.93404375 0 0 Z " fill="#FFFFFF" transform="translate(167.83203125,20.08984375)"/>
<path d="M0 0 C1.7306797 -0.0129007 1.7306797 -0.0129007 3.49632263 -0.02606201 C5.40464371 -0.03245193 5.40464371 -0.03245193 7.35151672 -0.03897095 C8.70004488 -0.04687157 10.04857092 -0.0551405 11.39709473 -0.06375122 C15.83280923 -0.08998148 20.2685332 -0.10528235 24.70429993 -0.11953735 C26.23149433 -0.1248971 27.75868867 -0.13027461 29.28588295 -0.13566971 C35.63993226 -0.15730215 41.99397902 -0.17603769 48.34805584 -0.1872921 C57.45168967 -0.20352262 66.55489607 -0.23667391 75.65836877 -0.29369295 C82.06016407 -0.33242104 88.46184521 -0.3519283 94.86375457 -0.35721266 C98.68655194 -0.36086298 102.50889354 -0.37284874 106.33156395 -0.4053154 C109.93092462 -0.43544625 113.529555 -0.44169066 117.12901497 -0.42993164 C119.07314526 -0.42960657 121.0172308 -0.45404041 122.9611969 -0.47930908 C130.19737492 -0.42776806 134.24025454 0.10667612 139.56758118 5.15390015 C142.92888091 9.92477719 143.29995974 14.49831013 142.56758118 20.15390015 C140.74331212 25.42401076 137.99506432 27.99141219 133.56758118 31.15390015 C130.60847681 32.13734323 127.90219867 32.27760528 124.79664612 32.27415466 C123.84232822 32.27553216 122.88801033 32.27690966 121.90477371 32.2783289 C120.33842493 32.27293173 120.33842493 32.27293173 118.74043274 32.26742554 C117.61987362 32.26754607 116.4993145 32.26766661 115.34479904 32.26779079 C111.71591459 32.26704413 108.08708144 32.25942706 104.45820618 32.2515564 C102.21846033 32.25008621 99.97871415 32.24906597 97.7389679 32.24850464 C89.43183375 32.24326059 81.12470696 32.22929941 72.81758118 32.21640015 C44.97383118 32.18546265 44.97383118 32.18546265 16.56758118 32.15390015 C16.56758118 70.43390015 16.56758118 108.71390015 16.56758118 148.15390015 C53.81496073 148.03516018 53.81496073 148.03516018 91.06221008 147.88363647 C98.2714386 147.87008667 98.2714386 147.87008667 101.647995 147.86756897 C104.00274862 147.86296674 106.35749525 147.85242485 108.71220398 147.83717346 C112.28212236 147.81521004 115.85160925 147.81218229 119.42158508 147.81332397 C120.46798975 147.80252965 121.51439442 147.79173532 122.59250832 147.7806139 C128.76760455 147.80704511 133.48564852 148.27694163 138.21211243 152.6890564 C142.58679494 158.40979506 143.31810457 162.0024844 142.56758118 169.15390015 C141.06031778 173.97532702 138.17045931 176.94218143 133.73768425 179.34273529 C129.36715747 180.97639858 124.824343 180.67103447 120.21626282 180.60800171 C119.07551772 180.60848385 117.93477262 180.60896599 116.7594595 180.60946274 C113.08189689 180.60648691 109.40515418 180.576071 105.72773743 180.54452515 C103.45133352 180.538641 101.1749242 180.53456214 98.89851379 180.53231812 C90.47562017 180.51138148 82.05284254 180.45553638 73.63008118 180.40390015 C45.38414368 180.28015015 45.38414368 180.28015015 16.56758118 180.15390015 C16.56758118 218.76390015 16.56758118 257.37390015 16.56758118 297.15390015 C53.81496073 297.03516018 53.81496073 297.03516018 91.06221008 296.88363647 C98.2714386 296.87008667 98.2714386 296.87008667 101.647995 296.86756897 C104.00274862 296.86296674 106.35749525 296.85242485 108.71220398 296.83717346 C112.28212236 296.81521004 115.85160925 296.81218229 119.42158508 296.81332397 C120.46798975 296.80252965 121.51439442 296.79173532 122.59250832 296.7806139 C128.76760455 296.80704511 133.48564852 297.27694163 138.21211243 301.6890564 C142.58679494 307.40979506 143.31810457 311.0024844 142.56758118 318.15390015 C141.08293525 322.90297837 138.22624387 325.97141094 133.84843445 328.33882141 C128.89858064 330.107686 123.59275588 329.70551085 118.39961243 329.67147827 C117.08334869 329.67848755 115.76708496 329.68549683 114.41093445 329.69271851 C110.81580105 329.71088652 107.22112902 329.70391175 103.62598801 329.69120216 C99.85496065 329.68104042 96.0839715 329.69047662 92.3129425 329.69674683 C85.98140914 329.70401404 79.6500627 329.69445999 73.31855774 329.67538452 C66.0094635 329.6536174 58.70081564 329.66066944 51.39173222 329.68269014 C45.10444615 329.70087069 38.81729407 329.70338956 32.5299902 329.69293547 C28.78004584 329.68671505 25.03031096 329.68582462 21.28038025 329.69908142 C17.09850336 329.71283387 12.91739009 329.69374712 8.73554993 329.67147827 C7.50001373 329.6795752 6.26447754 329.68767212 4.99150085 329.6960144 C-1.6559893 329.63046365 -6.20457254 329.44968192 -11.43241882 325.15390015 C-16.12295145 318.89334724 -15.99638718 313.34308075 -15.93362427 305.69758606 C-15.94192586 303.81448883 -15.94192586 303.81448883 -15.95039517 301.89334923 C-15.96512187 298.42030874 -15.95498559 294.94772293 -15.94065845 291.47469723 C-15.92953664 287.72481844 -15.94149519 283.97500279 -15.95050049 280.22512817 C-15.96442636 272.88398797 -15.95688183 265.54301989 -15.94182491 258.2018879 C-15.92495742 249.65234464 -15.92817596 241.10284417 -15.93191899 232.55328942 C-15.93779628 217.29911252 -15.92363066 202.04501819 -15.89897156 186.79086304 C-15.87504695 171.98939927 -15.8679691 157.1880458 -15.87846375 142.38656616 C-15.88987272 126.26664557 -15.89180359 110.14677598 -15.87736565 94.02685601 C-15.87583981 92.30806069 -15.87431946 90.58926537 -15.87280464 88.87047005 C-15.87204683 88.02479738 -15.87128901 87.17912472 -15.87050823 86.30782561 C-15.86576558 80.34836669 -15.86761668 74.38893054 -15.87187004 68.42947197 C-15.87679637 61.16766863 -15.87081374 53.90596958 -15.85097574 46.64419013 C-15.84110351 42.93913555 -15.83599785 39.23423977 -15.84386826 35.52917671 C-15.85222354 31.51371073 -15.83734615 27.49866813 -15.82009888 23.48323059 C-15.82610892 22.31096135 -15.83211897 21.13869211 -15.83831114 19.93089956 C-15.79412309 14.29200557 -15.74440006 9.96002853 -12.43241882 5.15390015 C-8.12857056 1.26993952 -5.72939977 0.03171269 0 0 Z " fill="#FFFFFF" transform="translate(271.4324188232422,6.846099853515625)"/>
</svg>
