<?xml version="1.0" standalone="no"?>
<!DOCTYPE svg PUBLIC "-//W3C//DTD SVG 20010904//EN"
 "http://www.w3.org/TR/2001/REC-SVG-20010904/DTD/svg10.dtd">
<svg version="1.0" xmlns="http://www.w3.org/2000/svg"
 width="631.000000pt" height="227.000000pt" viewBox="0 0 631.000000 227.000000"
 preserveAspectRatio="xMidYMid meet">

<g transform="translate(0.000000,227.000000) scale(0.100000,-0.100000)"
fill="#000000" stroke="none">
<path d="M760 2246 c-422 -90 -720 -428 -756 -858 l-7 -78 109 56 108 55 17
72 c49 207 187 382 377 479 124 64 211 82 365 76 142 -6 223 -30 340 -99 84
-50 198 -162 245 -241 71 -119 109 -291 83 -371 -7 -20 -31 -52 -53 -71 -56
-48 -120 -60 -283 -53 -151 7 -186 13 -440 74 -177 42 -197 45 -290 41 -177
-9 -342 -84 -472 -214 -50 -50 -55 -58 -49 -87 8 -42 76 -180 116 -235 l31
-43 44 60 c97 131 223 235 344 283 48 19 75 22 181 22 71 -1 164 -8 215 -17
156 -29 287 -39 373 -28 93 12 180 43 224 79 47 40 20 -5 -31 -51 -119 -108
-285 -145 -549 -125 -162 13 -227 5 -322 -40 -107 -50 -216 -183 -267 -326
-13 -39 -13 -42 9 -60 27 -22 147 -83 198 -101 l37 -13 22 68 c25 78 83 173
131 213 65 55 104 68 256 83 224 22 369 75 480 176 l58 53 -28 -50 c-103 -181
-265 -307 -456 -355 -137 -34 -186 -81 -198 -189 l-5 -44 89 6 c580 40 984
605 838 1172 -65 252 -251 478 -491 599 -129 64 -229 88 -388 92 -93 2 -162
-1 -205 -10z"/>
<path d="M2549 2110 c-114 -20 -200 -84 -245 -182 -26 -57 -29 -73 -29 -168 0
-86 5 -115 23 -162 29 -71 88 -132 160 -166 49 -23 70 -27 152 -27 76 0 104 4
141 21 84 39 158 136 159 207 l0 27 -72 0 -73 -1 -20 -41 c-30 -63 -64 -83
-139 -83 -53 0 -68 4 -98 27 -50 38 -72 89 -76 181 -5 94 12 148 63 197 32 31
42 35 103 38 62 4 71 2 100 -23 18 -15 42 -45 53 -67 l20 -39 72 3 c70 3 72 4
69 28 -22 154 -190 261 -363 230z"/>
<path d="M3030 1768 c-69 -188 -126 -348 -128 -355 -3 -10 15 -13 73 -13 l76
0 13 33 c7 17 21 53 30 80 l18 47 132 0 132 0 25 -77 25 -78 82 -3 c45 -2 82
0 82 3 0 4 -57 164 -126 356 l-127 349 -91 0 -91 0 -125 -342z m259 39 c22
-65 41 -120 41 -123 0 -2 -40 -4 -89 -4 l-90 0 39 115 c37 111 49 140 55 133
1 -2 21 -56 44 -121z"/>
<path d="M3652 1758 l3 -353 105 -3 c260 -7 389 48 459 197 23 50 26 68 26
161 -1 86 -5 114 -22 152 -33 70 -94 131 -166 164 -59 27 -70 29 -235 32
l-172 4 2 -354z m335 203 c26 -12 52 -35 70 -62 24 -37 28 -54 31 -129 4 -93
-6 -129 -52 -178 -34 -38 -70 -52 -151 -59 l-75 -6 0 227 0 226 68 0 c44 0 81
-7 109 -19z"/>
<path d="M4740 1267 c-79 -40 -49 -150 41 -150 81 0 110 111 38 148 -34 18
-47 18 -79 2z"/>
<path d="M2300 895 l0 -355 75 0 75 0 0 145 0 145 130 0 131 0 -3 63 -3 62
-127 3 -128 3 0 79 0 80 155 0 155 0 0 65 0 65 -230 0 -230 0 0 -355z"/>
<path d="M4360 1135 l0 -75 -40 0 -40 0 0 -60 0 -60 39 0 39 0 4 -154 c3 -138
5 -158 24 -183 30 -41 67 -55 160 -61 l84 -5 0 66 0 66 -57 3 -58 3 -3 133 -3
132 56 0 55 0 0 60 0 60 -55 0 -55 0 0 75 0 75 -75 0 -75 0 0 -75z"/>
<path d="M3335 1061 c-52 -13 -113 -50 -139 -84 -82 -107 -73 -271 20 -363
102 -103 303 -98 402 10 126 136 65 379 -107 430 -57 17 -125 19 -176 7z m134
-125 c116 -61 77 -276 -50 -276 -89 0 -134 58 -127 163 4 54 8 63 41 93 41 38
87 45 136 20z"/>
<path d="M3957 1056 c-21 -8 -46 -21 -56 -30 -20 -18 -31 -12 -31 16 0 16 -9
18 -65 18 l-65 0 0 -260 0 -260 69 0 69 0 4 163 c3 137 6 167 22 194 44 72
146 71 181 -2 12 -26 15 -69 15 -194 l0 -161 70 0 70 0 0 188 c0 160 -3 193
-19 227 -43 96 -157 139 -264 101z"/>
<path d="M5088 1060 c-78 -23 -139 -80 -168 -155 -19 -48 -17 -154 3 -207 75
-193 404 -214 483 -31 22 50 19 53 -51 53 -61 0 -67 -2 -94 -32 -27 -30 -35
-33 -86 -33 -51 0 -59 3 -86 33 -16 18 -29 43 -29 57 l0 25 185 0 185 0 0 48
c0 113 -67 205 -171 236 -56 17 -127 19 -171 6z m142 -115 c16 -9 37 -29 45
-45 l16 -30 -116 0 c-63 0 -115 2 -115 5 0 2 5 15 11 28 23 52 101 72 159 42z"/>
<path d="M5955 1055 c-79 -31 -120 -91 -113 -167 8 -83 57 -114 217 -138 85
-12 111 -24 111 -49 0 -72 -179 -72 -197 0 -5 16 -15 19 -74 19 -63 0 -69 -2
-69 -20 0 -31 25 -74 59 -103 102 -85 324 -70 393 26 17 24 23 46 23 89 0 49
-4 61 -30 88 -33 34 -94 56 -188 66 -91 10 -109 19 -105 51 5 41 61 60 120 42
27 -9 47 -23 53 -36 9 -21 17 -23 79 -23 l69 0 -7 31 c-16 83 -94 131 -221
136 -54 2 -93 -2 -120 -12z"/>
<path d="M2800 800 l0 -261 73 3 72 3 5 160 c6 206 16 225 119 225 l51 0 0 65
0 65 -41 0 c-49 0 -105 -25 -122 -54 -11 -20 -12 -19 -17 14 l-5 35 -67 3 -68
3 0 -261z"/>
<path d="M4702 803 l3 -258 73 -3 72 -3 0 261 0 260 -75 0 -75 0 2 -257z"/>
<path d="M5482 803 l3 -258 73 -3 72 -3 0 151 c0 161 7 193 52 224 13 9 43 16
70 16 l48 0 0 65 0 65 -41 0 c-44 0 -72 -11 -106 -43 l-23 -20 -6 31 -6 32
-69 0 -69 0 2 -257z"/>
<path d="M2343 211 c-50 -31 -59 -87 -28 -164 15 -37 99 -60 134 -38 9 6 24 5
38 -2 32 -14 57 8 31 27 -14 11 -16 19 -8 46 12 42 -2 100 -30 125 -30 27 -99
30 -137 6z m109 -38 c12 -10 18 -30 18 -57 0 -31 -3 -37 -12 -28 -7 7 -22 12
-35 12 -29 0 -31 -30 -3 -37 32 -9 23 -23 -14 -23 -25 0 -39 7 -50 22 -21 29
-20 87 1 110 20 22 70 23 95 1z"/>
<path d="M3284 222 c-6 -4 -14 -17 -18 -29 -4 -13 -12 -23 -17 -23 -5 0 -9 -9
-9 -20 0 -11 4 -20 10 -20 5 0 10 -28 12 -62 2 -50 6 -63 21 -66 15 -3 17 5
17 62 0 59 2 65 22 68 34 5 37 38 4 38 -32 0 -35 17 -4 22 13 2 24 11 26 21 3
13 -3 17 -25 17 -15 0 -33 -4 -39 -8z"/>
<path d="M4440 115 c0 -108 1 -115 20 -115 18 0 20 7 20 58 0 76 27 104 64 66
11 -10 16 -34 16 -70 0 -48 3 -55 18 -52 14 3 17 14 16 66 -1 80 -21 106 -76
99 -37 -5 -38 -5 -38 29 0 27 -4 34 -20 34 -19 0 -20 -7 -20 -115z"/>
<path d="M6000 114 c0 -104 2 -115 17 -112 11 2 20 15 23 32 7 41 21 41 48 1
13 -21 30 -35 42 -35 26 0 26 3 -11 57 l-31 45 33 34 33 34 -26 0 c-18 0 -36
-12 -57 -37 l-31 -38 0 68 c0 60 -2 67 -20 67 -19 0 -20 -7 -20 -116z"/>
<path d="M3080 196 c0 -16 -6 -26 -15 -26 -8 0 -15 -9 -15 -20 0 -11 7 -20 15
-20 12 0 15 -13 15 -55 0 -58 14 -75 59 -75 27 0 28 30 1 37 -16 4 -20 14 -20
48 0 34 4 44 20 48 26 7 26 37 1 37 -13 0 -21 8 -23 22 -5 34 -38 37 -38 4z"/>
<path d="M5090 121 c0 -89 2 -101 19 -111 33 -17 61 -12 61 10 0 13 -7 20 -20
20 -17 0 -20 7 -20 44 0 35 4 45 20 49 26 7 26 37 1 37 -13 0 -21 8 -23 22 -2
13 -11 24 -20 26 -16 3 -18 -7 -18 -97z"/>
<path d="M5457 213 c-4 -3 -7 -15 -7 -25 0 -10 -7 -18 -15 -18 -8 0 -15 -7
-15 -15 0 -9 7 -18 15 -21 10 -4 15 -21 15 -54 0 -57 20 -83 59 -78 32 4 35
32 4 36 -20 3 -23 9 -23 48 0 37 3 44 20 44 13 0 20 7 20 20 0 13 -7 20 -20
20 -15 0 -20 7 -20 25 0 24 -18 34 -33 18z"/>
<path d="M5550 121 c0 -89 2 -101 19 -111 33 -17 61 -12 61 10 0 13 -7 20 -20
20 -17 0 -20 7 -20 44 0 35 4 45 20 49 26 7 26 37 1 37 -13 0 -21 8 -23 22 -2
13 -11 24 -20 26 -16 3 -18 -7 -18 -97z"/>
<path d="M2540 105 c0 -52 4 -69 20 -85 22 -22 51 -26 81 -10 13 7 19 7 19 0
0 -5 7 -10 15 -10 12 0 15 16 15 85 0 78 -2 85 -20 85 -16 0 -19 -8 -22 -62
-3 -63 -3 -63 -33 -63 -30 0 -30 0 -33 63 -3 54 -6 62 -22 62 -18 0 -20 -7
-20 -65z"/>
<path d="M2742 147 c-33 -35 -30 -99 4 -126 37 -29 79 -27 112 7 l27 27 -24 3
c-15 2 -28 -3 -33 -12 -16 -29 -68 -13 -68 21 0 9 17 13 60 13 54 0 60 2 60
20 0 12 -11 32 -25 45 -32 33 -83 34 -113 2z m88 -22 c11 -13 7 -15 -30 -15
-37 0 -41 2 -30 15 7 8 20 15 30 15 10 0 23 -7 30 -15z"/>
<path d="M2917 152 c-33 -36 -15 -69 46 -81 18 -4 32 -13 32 -21 0 -21 -44
-25 -51 -6 -8 20 -44 21 -44 2 0 -8 10 -22 22 -30 48 -34 122 -7 116 42 -2 23
-11 29 -50 41 -27 8 -48 18 -48 23 0 15 32 21 51 10 43 -27 67 -6 27 22 -30
22 -81 20 -101 -2z"/>
<path d="M3375 145 c-47 -46 -26 -127 36 -140 66 -15 119 38 104 104 -13 62
-94 83 -140 36z m89 -21 c23 -22 20 -60 -6 -78 -28 -20 -33 -20 -52 0 -22 21
-20 70 2 83 24 15 38 13 56 -5z"/>
<path d="M3540 85 c0 -78 2 -85 20 -85 17 0 20 7 20 53 0 59 7 73 35 78 26 5
33 39 8 39 -11 0 -24 -5 -31 -12 -9 -9 -12 -9 -12 0 0 7 -9 12 -20 12 -18 0
-20 -7 -20 -85z"/>
<path d="M3730 150 c0 -17 7 -20 41 -20 l40 0 -40 -48 c-60 -71 -56 -82 29
-82 63 0 70 2 70 20 0 17 -7 20 -46 20 l-46 0 46 52 c25 29 46 58 46 65 0 9
-20 13 -70 13 -63 0 -70 -2 -70 -20z"/>
<path d="M3905 145 c-52 -51 -16 -145 55 -145 38 0 98 52 67 58 -10 2 -27 -4
-38 -14 -16 -14 -24 -15 -44 -6 -14 6 -25 18 -25 27 0 12 13 15 60 15 54 0 60
2 60 20 0 12 -11 32 -25 45 -32 33 -78 33 -110 0z m85 -20 c11 -13 7 -15 -30
-15 -37 0 -41 2 -30 15 7 8 20 15 30 15 10 0 23 -7 30 -15z"/>
<path d="M4062 88 c3 -70 6 -83 21 -86 14 -3 17 4 17 41 0 59 7 77 36 88 13 4
24 15 24 24 0 18 -31 20 -48 3 -9 -9 -12 -9 -12 0 0 7 -9 12 -20 12 -20 0 -21
-5 -18 -82z"/>
<path d="M4198 156 c-24 -18 -39 -63 -32 -92 8 -32 50 -64 84 -64 15 0 39 9
54 21 21 16 26 29 26 64 0 35 -5 48 -26 64 -30 24 -80 27 -106 7z m80 -28 c20
-20 15 -76 -8 -88 -44 -24 -85 31 -56 75 18 27 45 32 64 13z"/>
<path d="M4642 147 c-33 -35 -30 -99 4 -126 37 -29 79 -27 112 7 l27 27 -24 3
c-15 2 -28 -3 -33 -12 -16 -29 -68 -13 -68 21 0 9 17 13 60 13 54 0 60 2 60
20 0 12 -11 32 -25 45 -32 33 -83 34 -113 2z m88 -22 c11 -13 7 -15 -30 -15
-37 0 -41 2 -30 15 7 8 20 15 30 15 10 0 23 -7 30 -15z"/>
<path d="M4818 148 c-21 -21 -21 -23 -4 -26 10 -2 23 1 29 7 15 15 42 14 56
-3 9 -11 3 -15 -31 -20 -53 -9 -68 -21 -68 -57 0 -39 38 -58 82 -41 22 8 34 8
48 -1 11 -6 22 -9 25 -6 12 13 -14 144 -31 156 -28 21 -81 16 -106 -9z m86
-93 c-12 -30 -64 -30 -64 1 0 9 11 14 35 14 26 0 33 -4 29 -15z"/>
<path d="M4980 84 c0 -76 2 -85 18 -82 13 2 18 16 22 63 4 53 8 60 28 63 14 2
22 10 22 23 0 21 -12 24 -41 9 -13 -7 -19 -7 -19 0 0 5 -7 10 -15 10 -12 0
-15 -16 -15 -86z"/>
<path d="M5287 152 c-10 -10 -17 -22 -17 -25 0 -11 29 -8 49 5 19 12 51 5 51
-11 0 -5 -18 -12 -40 -16 -22 -4 -47 -14 -56 -22 -39 -40 19 -98 76 -76 17 6
32 7 36 2 9 -15 44 -10 44 5 0 8 -4 18 -10 21 -5 3 -10 28 -10 54 0 34 -5 53
-18 64 -25 23 -85 22 -105 -1z m83 -91 c0 -17 -29 -33 -50 -26 -20 6 -25 16
-13 28 10 10 63 8 63 -2z"/>
<path d="M5658 148 c-21 -21 -21 -23 -4 -26 10 -2 23 1 29 7 16 16 54 14 60
-3 4 -10 -6 -16 -36 -20 -52 -9 -67 -21 -67 -57 0 -39 38 -58 82 -41 22 8 34
8 48 -1 11 -6 22 -9 25 -6 12 13 -14 144 -31 156 -28 21 -81 16 -106 -9z m86
-93 c-12 -30 -64 -30 -64 1 0 9 11 14 35 14 26 0 33 -4 29 -15z"/>
<path d="M5843 155 c-48 -33 -37 -123 18 -145 46 -19 109 7 109 46 0 20 -20
17 -46 -7 -22 -21 -25 -21 -49 -5 -29 19 -33 56 -9 80 19 20 38 20 54 1 14
-17 50 -20 50 -5 0 6 -9 19 -20 30 -24 24 -76 26 -107 5z"/>
<path d="M6177 152 c-33 -36 -15 -69 46 -81 18 -4 32 -13 32 -21 0 -21 -39
-24 -55 -5 -7 8 -19 15 -26 15 -22 0 -16 -27 8 -44 48 -34 122 -7 116 42 -2
23 -11 29 -50 41 -27 8 -48 18 -48 23 0 16 31 21 55 8 36 -19 53 -8 27 18 -27
27 -82 29 -105 4z"/>
</g>
</svg>
